<?xml version="1.0" standalone="no"?>
<!DOCTYPE svg PUBLIC "-//W3C//DTD SVG 20010904//EN"
 "http://www.w3.org/TR/2001/REC-SVG-20010904/DTD/svg10.dtd">
<svg version="1.0" xmlns="http://www.w3.org/2000/svg"
 width="512.000000pt" height="512.000000pt" viewBox="0 0 512.000000 512.000000"
 preserveAspectRatio="xMidYMid meet">
<metadata>
Created by potrace 1.11, written by Peter Selinger 2001-2013
</metadata>
<g transform="translate(0.000000,512.000000) scale(0.100000,-0.100000)"
fill="#000000" stroke="none">
<path d="M2379 5116 c-2 -2 -40 -6 -83 -10 -44 -4 -82 -9 -85 -11 -4 -2 -34
-7 -66 -10 -33 -4 -114 -21 -180 -37 -546 -133 -1027 -433 -1380 -861 -22 -27
-44 -54 -50 -60 -21 -25 -68 -98 -64 -100 2 -2 128 -75 279 -162 151 -87 304
-176 339 -198 35 -21 74 -43 85 -48 12 -5 35 -18 51 -28 28 -17 581 -341 655
-383 376 -216 417 -245 463 -338 l22 -45 2 -1245 c2 -685 3 -1320 3 -1411 l0
-166 195 0 c172 0 195 2 196 16 0 9 1 644 2 1411 l2 1395 27 52 c52 100 -45
39 1243 788 116 67 235 136 265 154 30 17 62 35 70 41 8 5 76 44 151 87 l137
78 -36 50 c-170 236 -417 468 -678 638 -82 53 -292 166 -356 191 -24 10 -56
24 -73 31 -111 50 -378 125 -535 149 -52 8 -111 18 -130 21 -37 7 -465 16
-471 11z m290 -400 c59 -13 131 -37 136 -46 3 -6 13 -10 21 -10 24 0 137 -89
186 -148 209 -245 173 -624 -78 -832 -59 -49 -170 -104 -243 -120 -285 -66
-586 99 -687 375 -58 160 -37 359 53 509 86 141 260 256 423 278 33 5 158 0
189 -6z"/>
<path d="M179 3503 c-16 -41 -50 -136 -54 -153 -3 -8 -15 -52 -29 -97 -14 -45
-27 -98 -30 -116 -3 -19 -8 -40 -10 -48 -3 -8 -8 -31 -11 -53 -3 -21 -7 -41
-9 -45 -4 -6 -12 -68 -26 -201 -8 -76 -5 -468 3 -505 3 -12 8 -48 12 -80 4
-33 9 -67 10 -75 6 -27 37 -174 41 -190 15 -63 36 -138 44 -155 5 -11 14 -38
21 -60 33 -110 164 -394 217 -472 10 -16 45 -68 78 -118 224 -340 541 -628
917 -833 128 -70 430 -192 443 -179 3 3 6 560 6 1239 0 1021 -2 1234 -14 1241
-32 20 -828 482 -868 505 -25 14 -61 35 -80 47 -19 12 -57 34 -85 50 -47 26
-191 110 -370 215 -44 26 -106 61 -138 79 l-57 32 -11 -28z"/>
<path d="M4820 3463 c-52 -30 -108 -63 -125 -73 -34 -19 -751 -437 -805 -468
-19 -12 -57 -34 -85 -50 -94 -54 -121 -69 -245 -142 -69 -41 -149 -87 -177
-103 l-53 -29 0 -1239 c0 -681 2 -1239 5 -1239 8 0 200 70 235 86 390 177 682
396 964 724 16 18 60 76 98 128 221 305 373 658 443 1025 3 15 7 37 9 50 6 28
14 94 23 177 10 86 10 405 1 500 -14 137 -44 300 -74 406 -8 28 -16 60 -18 70
-6 25 -66 194 -77 217 -6 9 -13 17 -17 17 -4 0 -50 -26 -102 -57z"/>
</g>
</svg>
